# xmcd
#
# Track frame offsets: 
#        150
#        14937
#        35190
#        49440
#        76839
#        99177
#        113746
#        123122
#
# Disc length: 1930 seconds
#
# Revision: 2
# Processed by: cddbd v1.5.2PL0 Copyright (c) Steve Scherf et al.
# Submitted via: ExactAudioCopyFreeDBPlugin 1.0
#
DISCID=64078808
DTITLE=Beck, Jeff - Live And Exclusive From The Grammy Museum
DYEAR=2010
DGENRE=Blues
TTITLE0=Corpus Christi Carol
TTITLE1=Hammerhead
TTITLE2=Over The Rainbow
TTITLE3=Brush With The Blues
TTITLE4=A Day In The Life
TTITLE5=Nessun Dorma
TTITLE6=How High The Moon
TTITLE7=People Get Ready
EXTD=
EXTT0=
EXTT1=
EXTT2=
EXTT3=
EXTT4=
EXTT5=
EXTT6=
EXTT7=
PLAYORDER=
